<svg width="415.869" height="415.869" xmlns="http://www.w3.org/2000/svg" xml:space="preserve" version="1.1">

 <g>
  <title>Layer 1</title>
  <path id="svg_1" fill="#f05014" d="m192.306,282.645l0,0c-4.702,0 -8.882,-2.09 -11.494,-5.224l-78.89,-85.682c-5.747,-6.269 -5.224,-16.196 1.045,-21.943c6.269,-5.747 16.196,-5.224 21.943,1.045l67.918,73.665l188.082,-187.559c6.269,-6.269 16.196,-6.269 21.943,0c5.747,6.269 6.269,16.196 0,21.943l-199.575,199.053c-2.613,3.135 -6.792,4.702 -10.972,4.702z"/>
  <path id="svg_2" fill="#666666" d="m207.935,415.869c-114.417,0 -207.935,-93.518 -207.935,-207.934s93.518,-207.935 207.935,-207.935c8.882,0 15.673,6.792 15.673,15.673s-6.792,15.673 -15.673,15.673c-97.176,0 -176.588,79.412 -176.588,176.588s79.412,176.588 176.588,176.588s176.588,-79.412 176.588,-176.588c0,-8.882 6.792,-15.673 15.673,-15.673s15.673,6.792 15.673,15.673c0,114.417 -93.518,207.935 -207.934,207.935z"/>
  <g id="svg_3"/>
  <g id="svg_4"/>
  <g id="svg_5"/>
  <g id="svg_6"/>
  <g id="svg_7"/>
  <g id="svg_8"/>
  <g id="svg_9"/>
  <g id="svg_10"/>
  <g id="svg_11"/>
  <g id="svg_12"/>
  <g id="svg_13"/>
  <g id="svg_14"/>
  <g id="svg_15"/>
  <g id="svg_16"/>
  <g id="svg_17"/>
 </g>
</svg>