<svg width="40" height="40" xmlns="http://www.w3.org/2000/svg" xml:space="preserve" version="1.1">

 <g>
  <title>Layer 1</title>
  <g stroke="null" id="svg_18">
   <path stroke="null" id="svg_1" fill="#f05014" d="m18.4466,27.1122l0,0c-0.45103,0 -0.85199,-0.20048 -1.10254,-0.5011l-7.56738,-8.21889c-0.55127,-0.60134 -0.5011,-1.55357 0.10024,-2.10484c0.60134,-0.55127 1.55357,-0.5011 2.10484,0.10024l6.51491,7.06618l18.04142,-17.99125c0.60134,-0.60134 1.55357,-0.60134 2.10484,0c0.55127,0.60134 0.60134,1.55357 0,2.10484l-19.14386,19.09379c-0.25065,0.30072 -0.65151,0.45103 -1.05247,0.45103z"/>
   <path stroke="null" id="svg_2" fill="#666666" d="m19.94578,39.89147c-10.97524,0 -19.94578,-8.97054 -19.94578,-19.94569s8.97054,-19.94578 19.94578,-19.94578c0.85199,0 1.5034,0.65151 1.5034,1.5034s-0.65151,1.5034 -1.5034,1.5034c-9.32143,0 -16.93888,7.61745 -16.93888,16.93888s7.61745,16.93888 16.93888,16.93888s16.93888,-7.61745 16.93888,-16.93888c0,-0.85199 0.65151,-1.5034 1.5034,-1.5034s1.5034,0.65151 1.5034,1.5034c0,10.97524 -8.97054,19.94578 -19.94569,19.94578z"/>
   <g stroke="null" id="svg_3"/>
   <g stroke="null" id="svg_4"/>
   <g stroke="null" id="svg_5"/>
   <g stroke="null" id="svg_6"/>
   <g stroke="null" id="svg_7"/>
   <g stroke="null" id="svg_8"/>
   <g stroke="null" id="svg_9"/>
   <g stroke="null" id="svg_10"/>
   <g stroke="null" id="svg_11"/>
   <g stroke="null" id="svg_12"/>
   <g stroke="null" id="svg_13"/>
   <g stroke="null" id="svg_14"/>
   <g stroke="null" id="svg_15"/>
   <g stroke="null" id="svg_16"/>
   <g stroke="null" id="svg_17"/>
  </g>
 </g>
</svg>