<?xml version="1.0" encoding="UTF-8" standalone="no"?>
<!DOCTYPE svg PUBLIC "-//W3C//DTD SVG 1.1//EN" "http://www.w3.org/Graphics/SVG/1.1/DTD/svg11.dtd">
<svg version="1.1" xmlns="http://www.w3.org/2000/svg" xmlns:xlink="http://www.w3.org/1999/xlink" preserveAspectRatio="xMidYMid meet" viewBox="0 0 640 640" width="640" height="640"><defs><path d="M320 9.27C148.75 9.27 10 148.02 10 319.27C10 474 123.36 602.25 271.56 625.52C271.56 611.08 271.56 538.87 271.56 408.88L192.81 408.88L192.81 319.27L271.56 319.27C271.56 278.29 271.56 255.52 271.56 250.97C271.56 173.28 317.81 130.37 388.65 130.37C422.58 130.37 458.05 136.42 458.05 136.42C458.05 141.5 458.05 166.92 458.05 212.67C434.59 212.67 421.56 212.67 418.95 212.67C380.45 212.67 368.44 236.57 368.44 261.08C368.44 264.96 368.44 284.36 368.44 319.27L454.41 319.27L440.66 408.88L368.44 408.88C368.44 538.87 368.44 611.08 368.44 625.52C516.64 602.25 630 474 630 319.27C630 148.02 491.25 9.27 320 9.27Z" id="b1stUQ7Nt"></path></defs><g><g><g><use xlink:href="#b1stUQ7Nt" opacity="1" fill="#0072ff" fill-opacity="1"></use><g><use xlink:href="#b1stUQ7Nt" opacity="1" fill-opacity="0" stroke="#000000" stroke-width="1" stroke-opacity="0"></use></g></g></g></g></svg>